<?xml version="1.0" encoding="iso-8859-1"?>
<!-- Uploaded to: SVG Repo, www.svgrepo.com, Generator: SVG Repo Mixer Tools -->
<svg fill="#000000" version="1.1" id="Layer_1" xmlns="http://www.w3.org/2000/svg" xmlns:xlink="http://www.w3.org/1999/xlink" 
	 viewBox="0 0 512.037 512.037" xml:space="preserve">
<g>
	<g>
		<g>
			<path d="M255.667,295.789c13.171,0,23.888-10.716,23.888-23.887h-15.774c0,4.474-3.64,8.113-8.114,8.113
				c-4.475,0-8.114-3.64-8.114-8.113h-15.774C231.779,285.073,242.496,295.789,255.667,295.789z"/>
			<rect x="224.367" y="328.017" width="64.003" height="15.774"/>
			<polygon points="184.362,191.784 199.777,191.784 199.777,231.899 215.552,231.899 215.552,191.784 224.364,191.784 
				224.364,176.01 184.362,176.01 			"/>
			<polygon points="288.368,191.784 295.783,191.784 295.783,231.899 311.557,231.899 311.557,191.784 328.37,191.784 
				328.37,176.01 288.368,176.01 			"/>
			
				<rect x="88.038" y="431.939" transform="matrix(-0.9999 -0.0109 0.0109 -0.9999 186.6988 944.8992)" width="15.773" height="80.003"/>
			
				<rect x="407.358" y="431.95" transform="matrix(-0.9999 -0.0109 0.0109 -0.9999 825.3214 948.4018)" width="15.774" height="80.003"/>
			<path d="M119.773,95.892h15.774c0-22.119,17.995-40.116,40.115-40.116V40.002C144.846,40.002,119.773,65.074,119.773,95.892z"/>
			<path d="M471.185,391.422c-23.921-31.621-57.265-55.758-94.547-68.603c4.928-13.626,7.621-28.312,7.621-43.617V231.77
				c2.849-0.052,5.605-0.486,8.227-1.241v9.37h15.774v-16.001h-3.633c6.695-5.847,10.935-14.434,10.935-24.001
				c0-17.387-13.99-31.559-31.303-31.874v-32.243h15.302V91.73c0-24.111-19.616-43.727-43.727-43.727h-21.598
				c7.14-3.766,15.923-6.946,26.436-8.291l-2.001-15.647c-16.731,2.14-29.861,8.144-39.628,14.623l8.208-28.627l-15.163-4.347
				l-7.068,24.653C295.054,12.283,275.807,0,253.74,0h-62.075C121.144,0,63.771,57.372,63.771,127.893v7.887h64.702v32.228h-0.812
				c-17.583,0-31.888,14.305-31.888,31.889c0,9.564,4.238,18.152,10.928,24.001h-2.228v16.001h15.774v-8.993
				c2.381,0.57,4.862,0.879,7.415,0.879h0.812v48.815c0,14.76,2.536,28.937,7.18,42.13c-37.387,12.822-70.831,37.002-94.808,68.696
				C14.431,426.347,0.468,468.01,0.468,511.913h15.774c0-40.438,12.859-78.812,37.185-110.971
				c22.32-29.506,53.54-51.933,88.407-63.644c5.006,10.009,11.29,19.268,18.643,27.564v77.15l64.003-16.001v20.288
				c0,5.124,4.081,9.304,9.163,9.483l-9.163,13.743v42.39h15.774v-37.614l12.334-18.503h7.559l12.334,18.503v37.614h15.774v-42.39
				l-9.163-13.743c5.081-0.18,9.163-4.359,9.163-9.483V426.01l64.003,16.001v-78.019c7.081-8.057,13.176-17.001,18.087-26.648
				c34.807,11.724,65.97,34.13,88.261,63.594c24.328,32.16,37.188,70.533,37.188,110.974h15.774
				C511.567,468.009,497.603,426.343,471.185,391.422z M384.26,183.812c8.613,0.311,15.529,7.397,15.529,16.084
				s-6.915,15.773-15.529,16.084V183.812z M128.473,216.012h-0.812c-8.885,0-16.114-7.229-16.114-16.114
				c0-8.886,7.229-16.115,16.114-16.115h0.812V216.012z M79.819,120.006c4.063-58.155,52.675-104.232,111.846-104.232h62.075
				c23.569,0,42.742,19.174,42.742,42.744v14.22c-0.454,2.119-0.699,4.315-0.699,6.567V99.62
				c-2.729,11.668-13.211,20.386-25.699,20.386H79.819z M224.478,409.75l-48.229,12.057v-41.932
				c13.975,11.202,30.353,19.521,48.229,24.045V409.75z M272.48,440.023h-32.229v-32.228h32.229V440.023z M336.484,421.807
				l-48.229-12.057v-6.143c17.886-4.688,34.261-13.144,48.229-24.461V421.807z M368.486,279.202
				c0,62.208-50.61,112.818-112.818,112.818c-61.437,0-111.42-49.983-111.42-111.42V135.78h125.836
				c12.075,0,22.972-5.109,30.667-13.268c5.324,7.991,14.414,13.268,24.715,13.268h43.02V279.202z M325.465,120.006
				c-7.669,0-13.909-6.24-13.909-13.91v-4.891c0.451-2.467,0.699-5.004,0.699-7.598V74.694c1.969-6.318,7.871-10.917,14.829-10.917
				h28.75c15.413,0,27.953,12.539,27.953,27.953v28.277H325.465z"/>
			<path d="M207.552,464.024h-87.778v47.889h15.774v-8.114h8.813h47.417v8.114h15.774v-8.114h0.812v-15.774h-0.812V464.024z
				 M191.777,488.025H144.36h-8.812v-8.227h56.229V488.025z"/>
		</g>
	</g>
</g>
</svg>